<svg width="22" height="23" viewBox="0 0 22 23" fill="none" xmlns="http://www.w3.org/2000/svg">
<g filter="url(#filter0_d_3_1262)">
<mask id="mask0_3_1262" style="mask-type:luminance" maskUnits="userSpaceOnUse" x="13" y="7" width="5" height="1">
<path d="M18.0001 7.22H13.9141V7.782H18.0001V7.22Z" fill="white"/>
</mask>
<g mask="url(#mask0_3_1262)">
<path d="M17.7241 7.50101H14.2131" stroke="#F9F2E5" stroke-width="0.5" stroke-linecap="round" stroke-linejoin="round"/>
</g>
<mask id="mask1_3_1262" style="mask-type:luminance" maskUnits="userSpaceOnUse" x="4" y="7" width="5" height="1">
<path d="M8.206 7.22H4V7.782H8.206V7.22Z" fill="white"/>
</mask>
<g mask="url(#mask1_3_1262)">
<path d="M7.7881 7.50101H4.2771" stroke="#F9F2E5" stroke-width="0.5" stroke-linecap="round" stroke-linejoin="round"/>
</g>
<mask id="mask2_3_1262" style="mask-type:luminance" maskUnits="userSpaceOnUse" x="10" y="0" width="2" height="5">
<path d="M11.436 0.5H10.687V4.74H11.436V0.5Z" fill="white"/>
</mask>
<g mask="url(#mask2_3_1262)">
<path d="M11.002 4.28801V0.777008" stroke="#F9F2E5" stroke-width="0.5" stroke-linecap="round" stroke-linejoin="round"/>
</g>
<mask id="mask3_3_1262" style="mask-type:luminance" maskUnits="userSpaceOnUse" x="10" y="10" width="2" height="5">
<path d="M11.436 10.261H10.687V14.5H11.436V10.261Z" fill="white"/>
</mask>
<g mask="url(#mask3_3_1262)">
<path d="M11.002 14.225V10.714" stroke="#F9F2E5" stroke-width="0.5" stroke-linecap="round" stroke-linejoin="round"/>
</g>
<mask id="mask4_3_1262" style="mask-type:luminance" maskUnits="userSpaceOnUse" x="6" y="5" width="10" height="10">
<path d="M15.371 5.577H6.56299V14.5H15.371V5.577Z" fill="white"/>
</mask>
<g mask="url(#mask4_3_1262)">
<path d="M15.0929 10.132C15.0932 10.2656 15.0865 10.3991 15.0729 10.532C15.0604 10.6663 15.0407 10.7998 15.0139 10.932C14.9869 11.064 14.9549 11.193 14.9139 11.321C14.8729 11.449 14.8299 11.575 14.7789 11.699C14.7282 11.8229 14.6711 11.944 14.6079 12.062C14.5449 12.18 14.4759 12.295 14.4009 12.406C14.2518 12.6287 14.0813 12.8364 13.8919 13.026C13.7979 13.12 13.6979 13.21 13.5919 13.296C13.4859 13.382 13.3799 13.46 13.2689 13.535C13.1579 13.61 13.0429 13.678 12.9249 13.742C12.8069 13.8052 12.6857 13.8623 12.5619 13.913C12.4379 13.964 12.3119 14.013 12.1839 14.048C12.0559 14.083 11.9249 14.12 11.7949 14.148C11.6649 14.176 11.5309 14.193 11.3949 14.207C11.2589 14.221 11.1279 14.227 10.9949 14.227C10.8619 14.227 10.7269 14.22 10.5949 14.207C10.4606 14.1944 10.3271 14.1747 10.1949 14.148C10.0639 14.121 9.93388 14.089 9.80588 14.048C9.67788 14.007 9.55188 13.965 9.42788 13.913C9.30388 13.861 9.18288 13.803 9.06488 13.742C8.94688 13.681 8.83188 13.61 8.72088 13.535C8.60988 13.46 8.50188 13.38 8.39788 13.296C8.19136 13.1253 8.00181 12.9351 7.83188 12.728C7.74788 12.628 7.66788 12.517 7.59288 12.406C7.51788 12.295 7.44988 12.18 7.38588 12.062C7.32188 11.944 7.26688 11.823 7.21488 11.699C7.16288 11.575 7.11488 11.449 7.07988 11.321C7.03945 11.1933 7.00607 11.0634 6.97988 10.932C6.95302 10.7998 6.93332 10.6663 6.92088 10.532C6.90788 10.398 6.90088 10.265 6.90088 10.132C6.90088 9.999 6.90788 9.864 6.92088 9.732C6.93348 9.59772 6.95317 9.4642 6.97988 9.332C7.00488 9.2 7.03888 9.071 7.07988 8.943C7.12088 8.815 7.16388 8.689 7.21488 8.565C7.26557 8.44113 7.32265 8.31997 7.38588 8.202C7.44888 8.084 7.51788 7.969 7.59288 7.858C7.66788 7.747 7.74788 7.639 7.83188 7.535C7.91657 7.43035 8.0067 7.33021 8.10188 7.235C8.19588 7.141 8.29588 7.051 8.40188 6.965C8.50788 6.879 8.61388 6.801 8.72488 6.726C8.83588 6.651 8.95088 6.583 9.06888 6.519C9.18688 6.455 9.30788 6.4 9.43188 6.348C9.5554 6.29635 9.68158 6.25129 9.80988 6.213C9.93788 6.175 10.0689 6.141 10.1989 6.113C10.3289 6.085 10.4629 6.068 10.5989 6.054C10.7349 6.04 10.8659 6.034 10.9989 6.034C11.1319 6.034 11.2669 6.041 11.3989 6.054C11.5332 6.06659 11.6667 6.08629 11.7989 6.113C11.9299 6.14 12.0599 6.172 12.1879 6.213C12.3159 6.254 12.4419 6.296 12.5659 6.348C12.6897 6.3987 12.8109 6.45577 12.9289 6.519C13.0469 6.582 13.1619 6.651 13.2729 6.726C13.3839 6.801 13.4919 6.881 13.5959 6.965C13.7006 7.04967 13.8007 7.13979 13.8959 7.235C13.9959 7.335 14.0799 7.429 14.1659 7.535C14.2516 7.63807 14.3314 7.7459 14.4049 7.858C14.4789 7.969 14.5479 8.084 14.6119 8.202C14.6751 8.31997 14.7322 8.44113 14.7829 8.565C14.8339 8.689 14.8829 8.815 14.9179 8.943C14.9529 9.071 14.9899 9.2 15.0179 9.332C15.0447 9.46418 15.0644 9.59771 15.0769 9.732C15.0849 9.864 15.0929 9.998 15.0929 10.132Z" stroke="#F9F2E5" stroke-width="0.5" stroke-linecap="round" stroke-linejoin="round"/>
</g>
<mask id="mask5_3_1262" style="mask-type:luminance" maskUnits="userSpaceOnUse" x="6" y="0" width="10" height="10">
<path d="M15.371 0.5H6.56299V9.426H15.371V0.5Z" fill="white"/>
</mask>
<g mask="url(#mask5_3_1262)">
<path d="M15.093 4.87C15.093 5.13862 15.0665 5.40658 15.014 5.67C14.987 5.801 14.955 5.931 14.914 6.059C14.873 6.187 14.83 6.313 14.779 6.437C14.7286 6.56099 14.6715 6.68217 14.608 6.8C14.545 6.918 14.476 7.033 14.401 7.144C14.326 7.255 14.248 7.363 14.162 7.467C14.0773 7.57168 13.9872 7.67182 13.892 7.767C13.798 7.867 13.698 7.951 13.592 8.037C13.486 8.123 13.38 8.201 13.269 8.276C13.158 8.351 13.043 8.419 12.925 8.483C12.807 8.547 12.686 8.602 12.562 8.654C12.438 8.706 12.312 8.754 12.184 8.789C12.056 8.824 11.925 8.861 11.795 8.889C11.6628 8.91571 11.5293 8.93541 11.395 8.948C11.261 8.961 11.128 8.968 10.995 8.968C10.862 8.968 10.727 8.961 10.595 8.948C10.4607 8.93541 10.3272 8.91571 10.195 8.889C10.064 8.864 9.93397 8.83 9.80597 8.789C9.67797 8.748 9.55197 8.705 9.42797 8.654C9.3041 8.60331 9.18294 8.54623 9.06497 8.483C8.94697 8.42 8.83197 8.351 8.72097 8.276C8.60997 8.201 8.50197 8.123 8.39797 8.037C8.29397 7.951 8.19797 7.863 8.09797 7.767C8.00277 7.67182 7.91264 7.57168 7.82797 7.467C7.74397 7.367 7.66397 7.255 7.58897 7.144C7.51397 7.033 7.44597 6.918 7.38197 6.8C7.31797 6.682 7.26297 6.561 7.21097 6.437C7.15897 6.313 7.11097 6.187 7.07597 6.059C7.04097 5.931 7.00397 5.8 6.97597 5.67C6.94927 5.5378 6.92957 5.40428 6.91697 5.27C6.90397 5.136 6.89697 5.003 6.89697 4.87C6.89697 4.737 6.90397 4.602 6.91697 4.47C6.92957 4.33572 6.94927 4.2022 6.97597 4.07C7.00097 3.939 7.03497 3.809 7.07597 3.681C7.11697 3.553 7.15997 3.427 7.21097 3.303C7.26139 3.17901 7.31848 3.05784 7.38197 2.94C7.44497 2.822 7.51397 2.707 7.58897 2.596C7.66397 2.485 7.74397 2.377 7.82797 2.273C7.91264 2.16833 8.00277 2.06819 8.09797 1.973C8.19197 1.873 8.29197 1.789 8.39797 1.703C8.50397 1.617 8.60997 1.539 8.72097 1.464C8.83197 1.389 8.94697 1.321 9.06497 1.257C9.18294 1.19378 9.3041 1.1367 9.42797 1.086C9.55297 1.035 9.67797 0.986003 9.80597 0.951003C9.93376 0.910745 10.0636 0.877364 10.195 0.851003C10.3272 0.824293 10.4607 0.804599 10.595 0.792003C10.729 0.779003 10.862 0.772003 10.995 0.772003C11.128 0.772003 11.263 0.779003 11.395 0.792003C11.5293 0.804599 11.6628 0.824293 11.795 0.851003C11.926 0.878003 12.056 0.910003 12.184 0.951003C12.312 0.992003 12.438 1.035 12.562 1.086C12.6858 1.1367 12.807 1.19378 12.925 1.257C13.043 1.32 13.158 1.389 13.269 1.464C13.38 1.539 13.488 1.617 13.592 1.703C13.696 1.789 13.792 1.877 13.892 1.973C13.992 2.069 14.076 2.167 14.162 2.273C14.2473 2.37633 14.3271 2.48415 14.401 2.596C14.475 2.707 14.544 2.822 14.608 2.94C14.6712 3.05797 14.7283 3.17913 14.779 3.303C14.83 3.427 14.879 3.553 14.914 3.681C14.9542 3.80879 14.9876 3.93864 15.014 4.07C15.0407 4.2022 15.0604 4.33572 15.073 4.47C15.086 4.604 15.093 4.737 15.093 4.87Z" stroke="#F9F2E5" stroke-width="0.5" stroke-linecap="round" stroke-linejoin="round"/>
</g>
<mask id="mask6_3_1262" style="mask-type:luminance" maskUnits="userSpaceOnUse" x="4" y="3" width="9" height="9">
<path d="M12.892 3.09698H4V11.905H12.892V3.09698Z" fill="white"/>
</mask>
<g mask="url(#mask6_3_1262)">
<path d="M12.461 7.50199C12.461 7.63599 12.454 7.76999 12.441 7.90199C12.4285 8.03629 12.4088 8.16982 12.382 8.30199C12.357 8.43399 12.323 8.56299 12.282 8.69299C12.241 8.82299 12.198 8.94699 12.147 9.07099C12.0963 9.19486 12.0392 9.31602 11.976 9.43399C11.913 9.55199 11.844 9.66699 11.769 9.77799C11.694 9.88899 11.614 9.99699 11.53 10.1C11.4453 10.2046 11.3552 10.3048 11.26 10.4C11.16 10.5 11.066 10.584 10.96 10.67C10.8567 10.7554 10.7488 10.8351 10.637 10.909C10.526 10.983 10.411 11.052 10.293 11.116C10.175 11.1792 10.0539 11.2363 9.92998 11.287C9.80498 11.338 9.67998 11.387 9.55198 11.422C9.42398 11.457 9.29298 11.494 9.16298 11.522C9.03078 11.5487 8.89726 11.5684 8.76298 11.581C8.62898 11.594 8.49598 11.601 8.36298 11.601C8.22998 11.601 8.09498 11.594 7.96298 11.581C7.8287 11.5684 7.69518 11.5487 7.56298 11.522C7.43198 11.495 7.30198 11.463 7.17398 11.422C7.04598 11.381 6.91998 11.338 6.79598 11.287C6.67211 11.2363 6.55095 11.1792 6.43298 11.116C6.31498 11.053 6.19998 10.984 6.08898 10.909C5.97798 10.834 5.86998 10.756 5.76598 10.67C5.66131 10.5853 5.56117 10.4952 5.46598 10.4C5.36598 10.3 5.28198 10.206 5.19598 10.1C5.11028 9.99727 5.03048 9.88976 4.95698 9.77799C4.88298 9.66699 4.81398 9.55199 4.74998 9.43399C4.68676 9.31602 4.62968 9.19486 4.57898 9.07099C4.52798 8.94699 4.47898 8.82099 4.44398 8.69299C4.37153 8.43445 4.32398 8.16958 4.30198 7.90199C4.28898 7.76799 4.28198 7.63499 4.28198 7.50199C4.28198 7.36899 4.28898 7.23399 4.30198 7.10199C4.31458 6.96771 4.33427 6.83419 4.36098 6.70199C4.38798 6.57099 4.41998 6.44099 4.46098 6.31299C4.50198 6.18499 4.54498 6.05899 4.59598 5.93499C4.64668 5.81112 4.70376 5.68996 4.76698 5.57199C4.82998 5.45399 4.89898 5.33899 4.97398 5.22799C5.04898 5.11699 5.12698 5.00899 5.21298 4.90499C5.38345 4.69896 5.57296 4.50946 5.77898 4.33899C5.87898 4.25499 5.99098 4.17499 6.10198 4.09999C6.21298 4.02499 6.32798 3.95699 6.44598 3.89299C6.56398 3.82899 6.68498 3.77399 6.80898 3.72199C6.93298 3.66999 7.05898 3.62199 7.18698 3.58699C7.31477 3.54673 7.44462 3.51335 7.57598 3.48699C7.70818 3.46028 7.8417 3.44059 7.97598 3.42799C8.10998 3.41499 8.24298 3.40799 8.37598 3.40799C8.50898 3.40799 8.64398 3.41499 8.77598 3.42799C8.91026 3.44059 9.04378 3.46028 9.17598 3.48699C9.30698 3.51199 9.43698 3.54599 9.56498 3.58699C9.69298 3.62799 9.81898 3.67099 9.94298 3.72199C10.0669 3.77269 10.188 3.82976 10.306 3.89299C10.424 3.95599 10.539 4.02499 10.65 4.09999C10.761 4.17499 10.869 4.25499 10.973 4.33899C11.179 4.50946 11.3685 4.69896 11.539 4.90499C11.623 5.00499 11.703 5.11699 11.778 5.22799C11.853 5.33899 11.921 5.45399 11.985 5.57199C12.049 5.68999 12.104 5.81099 12.156 5.93499C12.208 6.05899 12.256 6.18499 12.291 6.31299C12.326 6.44099 12.363 6.57199 12.391 6.70199C12.4177 6.83419 12.4374 6.96771 12.45 7.10199C12.454 7.23499 12.461 7.36799 12.461 7.50199Z" stroke="#F9F2E5" stroke-width="0.5" stroke-linecap="round" stroke-linejoin="round"/>
</g>
<mask id="mask7_3_1262" style="mask-type:luminance" maskUnits="userSpaceOnUse" x="9" y="3" width="9" height="9">
<path d="M18 3.09698H9.22998V11.905H18V3.09698Z" fill="white"/>
</mask>
<g mask="url(#mask7_3_1262)">
<path d="M17.724 7.502C17.724 7.636 17.717 7.77 17.704 7.902C17.6916 8.0363 17.6719 8.16983 17.645 8.302C17.618 8.434 17.586 8.563 17.545 8.693C17.504 8.823 17.461 8.947 17.41 9.071C17.359 9.195 17.3 9.316 17.239 9.434C17.178 9.552 17.107 9.667 17.032 9.778C16.957 9.889 16.877 9.997 16.793 10.1C16.7083 10.2046 16.6182 10.3048 16.523 10.4C16.423 10.494 16.329 10.584 16.223 10.67C16.1203 10.7557 16.0128 10.8355 15.901 10.909C15.789 10.983 15.675 11.052 15.557 11.116C15.439 11.1792 15.3179 11.2363 15.194 11.287C15.07 11.338 14.944 11.387 14.816 11.422C14.5592 11.4989 14.2957 11.5512 14.029 11.578C13.895 11.591 13.762 11.598 13.629 11.598C13.496 11.598 13.361 11.591 13.229 11.578C13.0947 11.5654 12.9612 11.5457 12.829 11.519C12.697 11.492 12.568 11.46 12.44 11.419C12.312 11.378 12.186 11.335 12.062 11.284C11.9381 11.2333 11.817 11.1762 11.699 11.113C11.581 11.05 11.466 10.981 11.355 10.906C11.2432 10.832 11.1354 10.7523 11.032 10.667C10.927 10.5827 10.8269 10.4926 10.732 10.397C10.6368 10.3018 10.5467 10.2016 10.462 10.097C10.378 9.997 10.298 9.886 10.223 9.775C10.148 9.664 10.08 9.549 10.016 9.431C9.95201 9.313 9.89701 9.192 9.84501 9.068C9.79301 8.944 9.74501 8.818 9.71001 8.69C9.67501 8.562 9.638 8.431 9.61 8.299C9.582 8.167 9.56501 8.036 9.55101 7.899C9.53701 7.762 9.53101 7.632 9.53101 7.499C9.53101 7.366 9.53801 7.231 9.55101 7.099C9.5636 6.96472 9.5833 6.8312 9.61 6.699C9.637 6.568 9.66901 6.438 9.71001 6.31C9.75101 6.182 9.79401 6.056 9.84501 5.932C9.8957 5.80813 9.95278 5.68697 10.016 5.569C10.079 5.451 10.148 5.336 10.223 5.225C10.298 5.114 10.378 5.006 10.462 4.902C10.6325 4.69597 10.822 4.50647 11.028 4.336C11.128 4.252 11.239 4.172 11.351 4.097C11.463 4.022 11.577 3.954 11.695 3.89C11.813 3.826 11.934 3.771 12.058 3.719C12.182 3.667 12.308 3.619 12.436 3.584C12.5637 3.54358 12.6936 3.5102 12.825 3.484C12.9572 3.45719 13.0907 3.43749 13.225 3.425C13.359 3.412 13.492 3.405 13.625 3.405C13.758 3.405 13.892 3.412 14.025 3.425C14.1593 3.43744 14.2928 3.45714 14.425 3.484C14.557 3.509 14.686 3.543 14.816 3.584C14.946 3.625 15.07 3.668 15.194 3.719C15.3179 3.76969 15.439 3.82677 15.557 3.89C15.675 3.953 15.79 4.022 15.901 4.097C16.012 4.172 16.12 4.252 16.223 4.336C16.3277 4.42069 16.4278 4.51082 16.523 4.606C16.617 4.7 16.707 4.8 16.793 4.906C16.879 5.012 16.957 5.118 17.032 5.229C17.107 5.34 17.175 5.455 17.239 5.573C17.3022 5.69097 17.3593 5.81213 17.41 5.936C17.461 6.061 17.51 6.186 17.545 6.314C17.5853 6.44179 17.6186 6.57164 17.645 6.703C17.672 6.835 17.69 6.967 17.704 7.103C17.718 7.239 17.724 7.368 17.724 7.502Z" stroke="#F9F2E5" stroke-width="0.5" stroke-linecap="round" stroke-linejoin="round"/>
</g>
</g>
<defs>
<filter id="filter0_d_3_1262" x="0.0270996" y="0.522003" width="21.947" height="21.955" filterUnits="userSpaceOnUse" color-interpolation-filters="sRGB">
<feFlood flood-opacity="0" result="BackgroundImageFix"/>
<feColorMatrix in="SourceAlpha" type="matrix" values="0 0 0 0 0 0 0 0 0 0 0 0 0 0 0 0 0 0 127 0" result="hardAlpha"/>
<feOffset dy="4"/>
<feGaussianBlur stdDeviation="2"/>
<feComposite in2="hardAlpha" operator="out"/>
<feColorMatrix type="matrix" values="0 0 0 0 0 0 0 0 0 0 0 0 0 0 0 0 0 0 0.25 0"/>
<feBlend mode="normal" in2="BackgroundImageFix" result="effect1_dropShadow_3_1262"/>
<feBlend mode="normal" in="SourceGraphic" in2="effect1_dropShadow_3_1262" result="shape"/>
</filter>
</defs>
</svg>
