<svg width="20" height="20" viewBox="0 0 20 20" fill="none" xmlns="http://www.w3.org/2000/svg">
<mask id="mask0_3_995" style="mask-type:luminance" maskUnits="userSpaceOnUse" x="14" y="9" width="6" height="2">
<path d="M20 9.60205H14.186V10.4021H20V9.60205Z" fill="white"/>
</mask>
<g mask="url(#mask0_3_995)">
<path d="M19.6082 10.002H14.6082" stroke="#222222" stroke-linecap="round" stroke-linejoin="round"/>
</g>
<mask id="mask1_3_995" style="mask-type:luminance" maskUnits="userSpaceOnUse" x="0" y="9" width="6" height="2">
<path d="M5.986 9.60205H0V10.4021H5.986V9.60205Z" fill="white"/>
</mask>
<g mask="url(#mask1_3_995)">
<path d="M5.38989 10.002H0.389893" stroke="#222222" stroke-linecap="round" stroke-linejoin="round"/>
</g>
<mask id="mask2_3_995" style="mask-type:luminance" maskUnits="userSpaceOnUse" x="9" y="0" width="2" height="7">
<path d="M10.6209 0H9.55493V6.034H10.6209V0Z" fill="white"/>
</mask>
<g mask="url(#mask2_3_995)">
<path d="M10.0029 5.39014V0.390137" stroke="#222222" stroke-linecap="round" stroke-linejoin="round"/>
</g>
<mask id="mask3_3_995" style="mask-type:luminance" maskUnits="userSpaceOnUse" x="9" y="13" width="2" height="7">
<path d="M10.6209 13.968H9.55493V20H10.6209V13.968Z" fill="white"/>
</mask>
<g mask="url(#mask3_3_995)">
<path d="M10.0029 19.6079V14.6079" stroke="#222222" stroke-linecap="round" stroke-linejoin="round"/>
</g>
<mask id="mask4_3_995" style="mask-type:luminance" maskUnits="userSpaceOnUse" x="3" y="7" width="14" height="13">
<path d="M16.2191 7.302H3.68506V20H16.2191V7.302Z" fill="white"/>
</mask>
<g mask="url(#mask4_3_995)">
<path d="M15.8231 13.784C15.8238 13.9743 15.8144 14.1646 15.7951 14.354C15.7772 14.5433 15.7492 14.7316 15.7111 14.918C15.6731 15.106 15.6271 15.29 15.5731 15.472C15.5191 15.654 15.4531 15.834 15.3811 16.01C15.3087 16.1861 15.2273 16.3583 15.1371 16.526C15.0471 16.694 14.9491 16.858 14.8431 17.016C14.7379 17.1745 14.6244 17.3274 14.5031 17.474C14.3826 17.6219 14.2544 17.7634 14.1191 17.898C13.9851 18.032 13.8431 18.16 13.6971 18.282C13.5511 18.404 13.3971 18.516 13.2371 18.622C13.0771 18.728 12.9151 18.822 12.7471 18.916C12.5794 19.0061 12.4072 19.0876 12.2311 19.16C12.0551 19.232 11.8751 19.296 11.6931 19.352C11.5111 19.408 11.3251 19.452 11.1391 19.492C10.9531 19.532 10.7631 19.556 10.5731 19.576C10.3831 19.596 10.1931 19.604 10.0031 19.604C9.81311 19.604 9.62111 19.594 9.43311 19.576C9.2431 19.5579 9.05417 19.5299 8.86711 19.492C8.68111 19.454 8.4951 19.408 8.3131 19.352C8.1311 19.296 7.9511 19.234 7.7751 19.16C7.5991 19.086 7.42711 19.004 7.25911 18.916C7.09111 18.828 6.92711 18.728 6.76911 18.622C6.61111 18.516 6.4571 18.402 6.3091 18.282C6.01503 18.0392 5.74511 17.7686 5.50311 17.474C5.38311 17.328 5.26911 17.174 5.16311 17.016C5.05711 16.858 4.96311 16.694 4.86911 16.526C4.77511 16.358 4.6991 16.186 4.6251 16.01C4.5511 15.834 4.48711 15.654 4.43311 15.472C4.37702 15.29 4.33095 15.105 4.2951 14.918C4.25705 14.7316 4.22901 14.5433 4.21111 14.354C4.19311 14.164 4.18311 13.974 4.18311 13.784C4.18311 13.594 4.19311 13.402 4.21111 13.214C4.22915 13.024 4.25719 12.835 4.2951 12.648C4.3311 12.46 4.37911 12.276 4.43311 12.094C4.48711 11.912 4.5531 11.732 4.6251 11.556C4.69748 11.3799 4.77893 11.2076 4.86911 11.04C4.95911 10.872 5.05711 10.708 5.16311 10.55C5.26911 10.392 5.38311 10.238 5.50311 10.09C5.62364 9.94204 5.75181 9.80052 5.88711 9.66596C6.02111 9.53196 6.1631 9.40396 6.3091 9.28196C6.4551 9.15996 6.60911 9.04796 6.76911 8.94196C6.92911 8.83596 7.09111 8.74196 7.25911 8.64796C7.42711 8.55396 7.5991 8.47796 7.7751 8.40396C7.95092 8.3305 8.13051 8.26641 8.3131 8.21196C8.4951 8.15796 8.68111 8.11196 8.86711 8.07196C9.05311 8.03196 9.24311 8.00796 9.43311 7.98796C9.62311 7.96796 9.81311 7.95996 10.0031 7.95996C10.1931 7.95996 10.3851 7.96996 10.5731 7.98796C10.7631 8.00601 10.952 8.03405 11.1391 8.07196C11.3251 8.10996 11.5111 8.15596 11.6931 8.21196C11.8751 8.26796 12.0551 8.32996 12.2311 8.40396C12.4072 8.47634 12.5794 8.55778 12.7471 8.64796C12.9151 8.73796 13.0791 8.83596 13.2371 8.94196C13.3951 9.04796 13.5491 9.16196 13.6971 9.28196C13.8444 9.40251 13.9852 9.53069 14.1191 9.66596C14.2551 9.80196 14.3811 9.94196 14.5031 10.09C14.625 10.2367 14.7386 10.3903 14.8431 10.55C14.9491 10.708 15.0431 10.872 15.1371 11.04C15.2273 11.2076 15.3087 11.3799 15.3811 11.556C15.4531 11.732 15.5191 11.912 15.5731 12.094C15.6271 12.276 15.6731 12.46 15.7111 12.648C15.7492 12.835 15.7772 13.0239 15.7951 13.214C15.8131 13.404 15.8231 13.594 15.8231 13.784Z" stroke="#222222" stroke-linecap="round" stroke-linejoin="round"/>
</g>
<mask id="mask5_3_995" style="mask-type:luminance" maskUnits="userSpaceOnUse" x="3" y="0" width="14" height="13">
<path d="M16.2191 0H3.68506V12.702H16.2191V0Z" fill="white"/>
</mask>
<g mask="url(#mask5_3_995)">
<path d="M15.8231 6.218C15.8231 6.59942 15.7856 6.97992 15.7111 7.354C15.6731 7.54 15.6271 7.726 15.5731 7.908C15.5191 8.09 15.4531 8.27 15.3811 8.446C15.3091 8.62226 15.2277 8.79451 15.1371 8.962C15.0471 9.13 14.9491 9.294 14.8431 9.452C14.7371 9.61 14.6251 9.764 14.5031 9.912C14.3826 10.0593 14.2544 10.2001 14.1191 10.334C13.9851 10.47 13.8431 10.596 13.6971 10.718C13.5511 10.84 13.3971 10.952 13.2371 11.058C13.0771 11.164 12.9151 11.258 12.7471 11.352C12.5791 11.446 12.4071 11.522 12.2311 11.596C12.0551 11.67 11.8751 11.734 11.6931 11.788C11.5111 11.842 11.3251 11.888 11.1391 11.926C10.952 11.9639 10.7631 11.9919 10.5731 12.01C10.3831 12.028 10.1931 12.038 10.0031 12.038C9.81311 12.038 9.62111 12.028 9.43311 12.01C9.2431 11.9919 9.05417 11.9639 8.86711 11.926C8.68111 11.89 8.4951 11.842 8.3131 11.788C8.1311 11.734 7.9511 11.668 7.7751 11.596C7.59901 11.5236 7.42678 11.4422 7.25911 11.352C7.09111 11.262 6.92711 11.164 6.76911 11.058C6.61111 10.952 6.4571 10.84 6.3091 10.718C6.1611 10.596 6.02111 10.47 5.88711 10.334C5.75183 10.2001 5.62365 10.0593 5.50311 9.912C5.38311 9.764 5.26911 9.612 5.16311 9.452C5.05711 9.292 4.96311 9.13 4.86911 8.962C4.77511 8.794 4.6991 8.622 4.6251 8.446C4.5511 8.27 4.48711 8.09 4.43311 7.908C4.37911 7.726 4.3331 7.54 4.2951 7.354C4.25719 7.16693 4.22915 6.97801 4.21111 6.788C4.19311 6.598 4.18311 6.408 4.18311 6.218C4.18311 6.028 4.19311 5.836 4.21111 5.648C4.22915 5.45799 4.25719 5.26906 4.2951 5.082C4.3311 4.896 4.37911 4.71 4.43311 4.528C4.48711 4.346 4.5531 4.166 4.6251 3.99C4.69709 3.81373 4.77854 3.64148 4.86911 3.474C4.95911 3.306 5.05711 3.142 5.16311 2.984C5.26911 2.826 5.38311 2.672 5.50311 2.524C5.62365 2.37673 5.75183 2.23587 5.88711 2.102C6.02111 1.966 6.1631 1.84 6.3091 1.718C6.4551 1.596 6.60911 1.484 6.76911 1.378C6.92911 1.272 7.09111 1.178 7.25911 1.084C7.42678 0.993816 7.59901 0.912373 7.7751 0.839996C7.9531 0.767996 8.1311 0.701996 8.3131 0.647996C8.49383 0.591608 8.67742 0.544875 8.86311 0.507996C9.05017 0.470086 9.2391 0.442048 9.42911 0.423996C9.61911 0.405996 9.80911 0.395996 9.99911 0.395996C10.1891 0.395996 10.3811 0.405996 10.5691 0.423996C10.7591 0.442048 10.948 0.470086 11.1351 0.507996C11.3211 0.545996 11.5071 0.591996 11.6891 0.645996C11.8711 0.699996 12.0511 0.765996 12.2271 0.837996C12.4032 0.910373 12.5754 0.991815 12.7431 1.082C12.9111 1.172 13.0751 1.27 13.2331 1.376C13.3911 1.482 13.5451 1.594 13.6931 1.716C13.8411 1.838 13.9811 1.964 14.1151 2.1C14.2491 2.236 14.3771 2.376 14.4991 2.522C14.6206 2.66915 14.7341 2.8227 14.8391 2.982C14.9451 3.14 15.0391 3.304 15.1331 3.472C15.2233 3.63967 15.3047 3.8119 15.3771 3.988C15.4491 4.164 15.5151 4.344 15.5691 4.526C15.625 4.70807 15.671 4.893 15.7071 5.08C15.745 5.26706 15.7731 5.45599 15.7911 5.646C15.8091 5.836 15.8191 6.026 15.8191 6.216L15.8231 6.218Z" stroke="#222222" stroke-linecap="round" stroke-linejoin="round"/>
</g>
<mask id="mask6_3_995" style="mask-type:luminance" maskUnits="userSpaceOnUse" x="0" y="3" width="13" height="14">
<path d="M12.654 3.73389H0V16.2679H12.654V3.73389Z" fill="white"/>
</mask>
<g mask="url(#mask6_3_995)">
<path d="M12.0421 10.0019C12.0421 10.1919 12.0321 10.3839 12.0141 10.5719C11.9962 10.7612 11.9682 10.9495 11.9301 11.1359C11.8941 11.3239 11.8461 11.5079 11.7921 11.6919C11.7381 11.8759 11.6721 12.0539 11.6001 12.2299C11.5277 12.406 11.4463 12.5782 11.3561 12.7459C11.2661 12.9139 11.1681 13.0779 11.0621 13.2359C10.9561 13.3939 10.8421 13.5479 10.7221 13.6939C10.6016 13.8418 10.4734 13.9833 10.3381 14.1179C10.2021 14.2539 10.0621 14.3799 9.9161 14.5019C9.76895 14.6233 9.61539 14.7368 9.4561 14.8419C9.2981 14.9479 9.1341 15.0419 8.9661 15.1359C8.79842 15.2261 8.62619 15.3075 8.4501 15.3799C8.2721 15.4519 8.0941 15.5179 7.9121 15.5719C7.7301 15.6259 7.5441 15.6719 7.3581 15.7099C7.17104 15.7478 6.98211 15.7758 6.7921 15.7939C6.6021 15.8119 6.4121 15.8219 6.2221 15.8219C6.0321 15.8219 5.8401 15.8119 5.6521 15.7939C5.46209 15.7758 5.27316 15.7478 5.0861 15.7099C4.9001 15.6719 4.7141 15.6259 4.5321 15.5719C4.3501 15.5179 4.1701 15.4519 3.9941 15.3799C3.81801 15.3075 3.64578 15.2261 3.4781 15.1359C3.3101 15.0459 3.1461 14.9479 2.9881 14.8419C2.8301 14.7359 2.6761 14.6239 2.5281 14.5019C2.38083 14.3813 2.23997 14.2532 2.1061 14.1179C1.9701 13.9819 1.8441 13.8419 1.7221 13.6939C1.60018 13.5478 1.48667 13.3949 1.3821 13.2359C1.2761 13.0779 1.1821 12.9139 1.0881 12.7459C0.997919 12.5782 0.916477 12.406 0.8441 12.2299C0.7721 12.0539 0.7061 11.8739 0.6521 11.6919C0.542612 11.3265 0.468274 10.9514 0.4301 10.5719C0.4121 10.3819 0.4021 10.1919 0.4021 10.0019C0.4021 9.81188 0.4121 9.61988 0.4301 9.43188C0.448151 9.24188 0.47619 9.05295 0.5141 8.86588C0.5521 8.67988 0.5981 8.49389 0.6521 8.31189C0.7061 8.12989 0.7721 7.94989 0.8441 7.77389C0.916477 7.59779 0.997919 7.42556 1.0881 7.25788C1.1781 7.08988 1.2761 6.92589 1.3821 6.76789C1.4881 6.60989 1.6001 6.45588 1.7221 6.30788C1.96484 6.01448 2.2347 5.74462 2.5281 5.50188C2.6761 5.38188 2.8281 5.26788 2.9881 5.16188C3.1481 5.05588 3.3101 4.96189 3.4781 4.86789C3.6461 4.77389 3.8181 4.69788 3.9941 4.62388C4.1701 4.54988 4.3501 4.48588 4.5321 4.43188C4.71417 4.37603 4.8991 4.32997 5.0861 4.29388C5.27316 4.25597 5.46209 4.22794 5.6521 4.20988C5.8421 4.19188 6.0321 4.18188 6.2221 4.18188C6.4121 4.18188 6.6041 4.19188 6.7921 4.20988C6.98211 4.22794 7.17104 4.25597 7.3581 4.29388C7.5441 4.32988 7.7301 4.37788 7.9121 4.43188C8.0941 4.48588 8.2741 4.55188 8.4501 4.62388C8.62619 4.69626 8.79842 4.77771 8.9661 4.86789C9.1341 4.95789 9.2981 5.05588 9.4561 5.16188C9.6141 5.26788 9.7681 5.38188 9.9161 5.50188C10.2095 5.74462 10.4794 6.01448 10.7221 6.30788C10.8421 6.45588 10.9561 6.60789 11.0621 6.76789C11.1681 6.92789 11.2621 7.08988 11.3561 7.25788C11.4501 7.42588 11.5261 7.59789 11.6001 7.77389C11.6741 7.94989 11.7381 8.12989 11.7921 8.31189C11.8461 8.49389 11.8921 8.67988 11.9301 8.86588C11.968 9.05295 11.996 9.24187 12.0141 9.43188C12.0321 9.62188 12.0421 9.81188 12.0421 10.0019Z" stroke="#222222" stroke-linecap="round" stroke-linejoin="round"/>
</g>
<mask id="mask7_3_995" style="mask-type:luminance" maskUnits="userSpaceOnUse" x="7" y="3" width="13" height="14">
<path d="M20 3.73389H7.52002V16.2679H20V3.73389Z" fill="white"/>
</mask>
<g mask="url(#mask7_3_995)">
<path d="M19.6081 10.0019C19.6081 10.1919 19.5981 10.3839 19.5801 10.5719C19.5622 10.7612 19.5341 10.9495 19.4961 11.1359C19.4581 11.3239 19.4121 11.5079 19.3581 11.6919C19.3041 11.8759 19.2381 12.0539 19.1661 12.2299C19.0941 12.4059 19.0101 12.5779 18.9221 12.7459C18.8341 12.9139 18.7341 13.0779 18.6281 13.2359C18.5221 13.3939 18.4081 13.5479 18.2881 13.6939C18.1675 13.8418 18.0394 13.9833 17.9041 14.1179C17.7681 14.2519 17.6281 14.3799 17.4801 14.5019C17.334 14.6238 17.181 14.7373 17.0221 14.8419C16.8621 14.9479 16.7001 15.0419 16.5321 15.1359C16.3644 15.2261 16.1922 15.3075 16.0161 15.3799C15.8401 15.4519 15.6601 15.5179 15.4781 15.5719C15.1126 15.6814 14.7376 15.7557 14.3581 15.7939C14.1681 15.8119 13.9781 15.8219 13.7881 15.8219C13.5981 15.8219 13.4061 15.8119 13.2181 15.7939C13.0281 15.7758 12.8391 15.7478 12.6521 15.7099C12.4641 15.6719 12.2801 15.6259 12.0981 15.5719C11.9161 15.5179 11.7361 15.4519 11.5601 15.3799C11.384 15.3075 11.2117 15.2261 11.0441 15.1359C10.8761 15.0459 10.7121 14.9479 10.5541 14.8419C10.3949 14.7367 10.2413 14.6232 10.0941 14.5019C9.94635 14.3818 9.80546 14.2536 9.67206 14.1179C9.53677 13.9833 9.40859 13.8418 9.28806 13.6939C9.16806 13.5479 9.05406 13.3939 8.94806 13.2359C8.84206 13.0779 8.74806 12.9139 8.65406 12.7459C8.56006 12.5779 8.48406 12.4059 8.41006 12.2299C8.33606 12.0539 8.27206 11.8739 8.21806 11.6919C8.16406 11.5099 8.11806 11.3239 8.07806 11.1359C8.03806 10.9479 8.01406 10.7619 7.99406 10.5719C7.97406 10.3819 7.96606 10.1919 7.96606 10.0019C7.96606 9.81188 7.97606 9.61988 7.99406 9.43188C8.01212 9.24188 8.04016 9.05295 8.07806 8.86588C8.11606 8.67988 8.16206 8.49389 8.21806 8.31189C8.27406 8.12989 8.33806 7.94989 8.41006 7.77389C8.48244 7.59779 8.56388 7.42556 8.65406 7.25788C8.74406 7.08988 8.84206 6.92589 8.94806 6.76789C9.05406 6.60989 9.16806 6.45588 9.28806 6.30788C9.5308 6.01448 9.80066 5.74462 10.0941 5.50188C10.2421 5.38188 10.3941 5.26788 10.5541 5.16188C10.7141 5.05588 10.8761 4.96189 11.0441 4.86789C11.2121 4.77389 11.3841 4.69788 11.5601 4.62388C11.7361 4.54988 11.9161 4.48588 12.0981 4.43188C12.2801 4.3758 12.465 4.32973 12.6521 4.29388C12.8391 4.25583 13.028 4.22779 13.2181 4.20988C13.4081 4.19188 13.5981 4.18188 13.7881 4.18188C13.9781 4.18188 14.1681 4.19188 14.3581 4.20988C14.5474 4.22779 14.7357 4.25583 14.9221 4.29388C15.1101 4.32988 15.2941 4.37788 15.4781 4.43188C15.6621 4.48588 15.8401 4.55188 16.0161 4.62388C16.1922 4.69626 16.3644 4.77771 16.5321 4.86789C16.7001 4.95789 16.8641 5.05588 17.0221 5.16188C17.1801 5.26788 17.3341 5.38188 17.4801 5.50188C17.628 5.62242 17.7695 5.75059 17.9041 5.88589C18.0381 6.01989 18.1661 6.16188 18.2881 6.30788C18.4101 6.45388 18.5221 6.60789 18.6281 6.76789C18.7341 6.92789 18.8281 7.08988 18.9221 7.25788C19.0122 7.42491 19.0936 7.59647 19.1661 7.77188C19.2381 7.94988 19.3021 8.12789 19.3581 8.30989C19.4139 8.49196 19.46 8.67689 19.4961 8.86388C19.5341 9.05188 19.5601 9.23989 19.5801 9.42989C19.6001 9.61989 19.6081 9.80989 19.6081 9.99989V10.0019Z" stroke="#222222" stroke-linecap="round" stroke-linejoin="round"/>
</g>
</svg>
