<svg xmlns="http://www.w3.org/2000/svg" xmlns:xlink="http://www.w3.org/1999/xlink" width="20" height="20" viewBox="0 0 20 20"><defs><clipPath id="a"><rect width="5.814" height="0.8" fill="none"/></clipPath><clipPath id="b"><rect width="5.986" height="0.8" fill="none"/></clipPath><clipPath id="c"><rect width="1.066" height="6.034" fill="none"/></clipPath><clipPath id="d"><rect width="1.066" height="6.032" fill="none"/></clipPath><clipPath id="e"><rect width="12.534" height="12.698" fill="none"/></clipPath><clipPath id="f"><rect width="12.534" height="12.702" fill="none"/></clipPath><clipPath id="g"><rect width="12.654" height="12.534" fill="none"/></clipPath><clipPath id="h"><rect width="12.48" height="12.534" fill="none"/></clipPath></defs><g transform="translate(14.186 9.602)" clip-path="url(#a)"><path d="M77.056,49.51h-5" transform="translate(-71.634 -49.11)" fill="none" stroke="#f9f2e5" stroke-linecap="round" stroke-linejoin="round" stroke-width="1"/></g><g transform="translate(0 9.602)" clip-path="url(#b)"><path d="M6.966,49.51h-5" transform="translate(-1.576 -49.11)" fill="none" stroke="#f9f2e5" stroke-linecap="round" stroke-linejoin="round" stroke-width="1"/></g><g transform="translate(9.555)" clip-path="url(#c)"><path d="M49.51,6.966v-5" transform="translate(-49.062 -1.576)" fill="none" stroke="#f9f2e5" stroke-linecap="round" stroke-linejoin="round" stroke-width="1"/></g><g transform="translate(9.555 13.968)" clip-path="url(#d)"><path d="M49.51,77.056v-5" transform="translate(-49.062 -71.416)" fill="none" stroke="#f9f2e5" stroke-linecap="round" stroke-linejoin="round" stroke-width="1"/></g><g transform="translate(3.685 7.302)" clip-path="url(#e)"><path d="M32.06,44.624a5.439,5.439,0,0,1-.028.57,5.324,5.324,0,0,1-.084.564c-.038.188-.084.372-.138.554s-.12.362-.192.538a5.518,5.518,0,0,1-.244.516c-.09.168-.188.332-.294.49a5.426,5.426,0,0,1-.34.458,5.481,5.481,0,0,1-.384.424c-.134.134-.276.262-.422.384s-.3.234-.46.34-.322.2-.49.294a5.518,5.518,0,0,1-.516.244c-.176.072-.356.136-.538.192s-.368.1-.554.14-.376.064-.566.084-.38.028-.57.028-.382-.01-.57-.028a5.44,5.44,0,0,1-.566-.084c-.186-.038-.372-.084-.554-.14s-.362-.118-.538-.192-.348-.156-.516-.244-.332-.188-.49-.294-.312-.22-.46-.34a5.918,5.918,0,0,1-.806-.808c-.12-.146-.234-.3-.34-.458s-.2-.322-.294-.49-.17-.34-.244-.516-.138-.356-.192-.538a5.213,5.213,0,0,1-.138-.554,5.324,5.324,0,0,1-.084-.564c-.018-.19-.028-.38-.028-.57s.01-.382.028-.57a5.439,5.439,0,0,1,.084-.566c.036-.188.084-.372.138-.554s.12-.362.192-.538a5.518,5.518,0,0,1,.244-.516c.09-.168.188-.332.294-.49s.22-.312.34-.46a5.481,5.481,0,0,1,.384-.424c.134-.134.276-.262.422-.384s.3-.234.46-.34.322-.2.49-.294.34-.17.516-.244a5.394,5.394,0,0,1,.538-.192c.182-.054.368-.1.554-.14s.376-.064.566-.084.38-.028.57-.028.382.01.57.028a5.44,5.44,0,0,1,.566.084c.186.038.372.084.554.14s.362.118.538.192a5.518,5.518,0,0,1,.516.244c.168.09.332.188.49.294s.312.22.46.34a5.453,5.453,0,0,1,.422.384c.136.136.262.276.384.424a5.051,5.051,0,0,1,.34.46c.106.158.2.322.294.49a5.518,5.518,0,0,1,.244.516c.072.176.138.356.192.538s.1.366.138.554a5.361,5.361,0,0,1,.084.566C32.05,44.244,32.06,44.434,32.06,44.624Z" transform="translate(-19.922 -38.142)" fill="none" stroke="#f9f2e5" stroke-linecap="round" stroke-linejoin="round" stroke-width="1"/></g><g transform="translate(3.685)" clip-path="url(#f)"><path d="M32.06,7.81a5.819,5.819,0,0,1-.112,1.136c-.038.186-.084.372-.138.554s-.12.362-.192.538a5.288,5.288,0,0,1-.244.516c-.09.168-.188.332-.294.49s-.218.312-.34.46a5.454,5.454,0,0,1-.384.422c-.134.136-.276.262-.422.384s-.3.234-.46.34-.322.2-.49.294-.34.17-.516.244-.356.138-.538.192-.368.1-.554.138a5.44,5.44,0,0,1-.566.084c-.19.018-.38.028-.57.028s-.382-.01-.57-.028a5.44,5.44,0,0,1-.566-.084c-.186-.036-.372-.084-.554-.138s-.362-.12-.538-.192a5.519,5.519,0,0,1-.516-.244c-.168-.09-.332-.188-.49-.294s-.312-.218-.46-.34-.288-.248-.422-.384a5.453,5.453,0,0,1-.384-.422c-.12-.148-.234-.3-.34-.46s-.2-.322-.294-.49-.17-.34-.244-.516-.138-.356-.192-.538-.1-.368-.138-.554a5.439,5.439,0,0,1-.084-.566c-.018-.19-.028-.38-.028-.57s.01-.382.028-.57a5.439,5.439,0,0,1,.084-.566c.036-.186.084-.372.138-.554s.12-.362.192-.538a5.289,5.289,0,0,1,.244-.516c.09-.168.188-.332.294-.49s.22-.312.34-.46a5.454,5.454,0,0,1,.384-.422c.134-.136.276-.262.422-.384s.3-.234.46-.34.322-.2.49-.294a5.518,5.518,0,0,1,.516-.244c.178-.072.356-.138.538-.192A5.337,5.337,0,0,1,25.1,2.1a5.44,5.44,0,0,1,.566-.084c.19-.018.38-.028.57-.028s.382.01.57.028a5.44,5.44,0,0,1,.566.084c.186.038.372.084.554.138s.362.12.538.192a5.518,5.518,0,0,1,.516.244c.168.09.332.188.49.294s.312.218.46.34.288.248.422.384.262.276.384.422a5.344,5.344,0,0,1,.34.46c.106.158.2.322.294.49a5.518,5.518,0,0,1,.244.516c.072.176.138.356.192.538a5.337,5.337,0,0,1,.138.554,5.439,5.439,0,0,1,.084.566c.018.19.028.38.028.57Z" transform="translate(-19.922 -1.592)" fill="none" stroke="#f9f2e5" stroke-linecap="round" stroke-linejoin="round" stroke-width="1"/></g><g transform="translate(0 3.734)" clip-path="url(#g)"><path d="M13.65,26.23c0,.19-.01.382-.028.57a5.324,5.324,0,0,1-.084.564c-.036.188-.084.372-.138.556s-.12.362-.192.538a5.519,5.519,0,0,1-.244.516c-.09.168-.188.332-.294.49s-.22.312-.34.458a5.481,5.481,0,0,1-.384.424c-.136.136-.276.262-.422.384a5.344,5.344,0,0,1-.46.34c-.158.106-.322.2-.49.294a5.519,5.519,0,0,1-.516.244c-.178.072-.356.138-.538.192s-.368.1-.554.138a5.441,5.441,0,0,1-.566.084c-.19.018-.38.028-.57.028s-.382-.01-.57-.028a5.441,5.441,0,0,1-.566-.084c-.186-.038-.372-.084-.554-.138s-.362-.12-.538-.192a5.519,5.519,0,0,1-.516-.244c-.168-.09-.332-.188-.49-.294s-.312-.218-.46-.34a5.454,5.454,0,0,1-.422-.384c-.136-.136-.262-.276-.384-.424a5.024,5.024,0,0,1-.34-.458c-.106-.158-.2-.322-.294-.49a5.518,5.518,0,0,1-.244-.516c-.072-.176-.138-.356-.192-.538a5.991,5.991,0,0,1-.222-1.12c-.018-.19-.028-.38-.028-.57s.01-.382.028-.57a5.44,5.44,0,0,1,.084-.566c.038-.186.084-.372.138-.554s.12-.362.192-.538a5.518,5.518,0,0,1,.244-.516c.09-.168.188-.332.294-.49s.218-.312.34-.46a6.058,6.058,0,0,1,.806-.806c.148-.12.3-.234.46-.34s.322-.2.49-.294.34-.17.516-.244.356-.138.538-.192a5.337,5.337,0,0,1,.554-.138,5.44,5.44,0,0,1,.566-.084c.19-.018.38-.028.57-.028s.382.01.57.028a5.44,5.44,0,0,1,.566.084c.186.036.372.084.554.138s.362.12.538.192a5.519,5.519,0,0,1,.516.244c.168.09.332.188.49.294s.312.22.46.34a6.057,6.057,0,0,1,.806.806c.12.148.234.3.34.46s.2.322.294.49.17.34.244.516.138.356.192.538.1.368.138.554a5.439,5.439,0,0,1,.084.566c.018.19.028.38.028.57Z" transform="translate(-1.608 -19.962)" fill="none" stroke="#f9f2e5" stroke-linecap="round" stroke-linejoin="round" stroke-width="1"/></g><g transform="translate(7.52 3.734)" clip-path="url(#h)"><path d="M50.472,26.23c0,.19-.01.382-.028.57a5.324,5.324,0,0,1-.084.564c-.038.188-.084.372-.138.556s-.12.362-.192.538-.156.348-.244.516-.188.332-.294.49-.22.312-.34.458a5.48,5.48,0,0,1-.384.424c-.136.134-.276.262-.424.384a5.023,5.023,0,0,1-.458.34c-.16.106-.322.2-.49.294a5.519,5.519,0,0,1-.516.244c-.176.072-.356.138-.538.192a5.991,5.991,0,0,1-1.12.222c-.19.018-.38.028-.57.028s-.382-.01-.57-.028a5.441,5.441,0,0,1-.566-.084c-.188-.038-.372-.084-.554-.138s-.362-.12-.538-.192a5.519,5.519,0,0,1-.516-.244c-.168-.09-.332-.188-.49-.294a5.455,5.455,0,0,1-.46-.34,5.108,5.108,0,0,1-.422-.384,5.479,5.479,0,0,1-.384-.424c-.12-.146-.234-.3-.34-.458s-.2-.322-.294-.49-.17-.34-.244-.516-.138-.356-.192-.538-.1-.368-.14-.556-.064-.374-.084-.564-.028-.38-.028-.57.01-.382.028-.57a5.441,5.441,0,0,1,.084-.566c.038-.186.084-.372.14-.554s.12-.362.192-.538a5.518,5.518,0,0,1,.244-.516c.09-.168.188-.332.294-.49s.22-.312.34-.46a6.058,6.058,0,0,1,.806-.806c.148-.12.3-.234.46-.34s.322-.2.49-.294.34-.17.516-.244.356-.138.538-.192a5.214,5.214,0,0,1,.554-.138,5.361,5.361,0,0,1,.566-.084c.19-.018.38-.028.57-.028s.38.01.57.028a5.324,5.324,0,0,1,.564.084c.188.036.372.084.556.138s.362.12.538.192a5.519,5.519,0,0,1,.516.244c.168.09.332.188.49.294s.312.22.458.34a5.48,5.48,0,0,1,.424.384c.134.134.262.276.384.422s.234.3.34.46.2.322.294.49A5.519,5.519,0,0,1,50.03,24c.072.178.136.356.192.538a5.339,5.339,0,0,1,.138.554c.038.188.064.376.084.566s.028.38.028.57Z" transform="translate(-38.384 -19.962)" fill="none" stroke="#f9f2e5" stroke-linecap="round" stroke-linejoin="round" stroke-width="1"/></g></svg>